<mxfile host="app.diagrams.net" modified="2023-09-20T09:51:17.055Z" agent="Mozilla/5.0 (Macintosh; Intel Mac OS X 10_15_7) AppleWebKit/605.1.15 (KHTML, like Gecko) Version/16.6 Safari/605.1.15" etag="2782SjG463hfLMD3BpDj" version="21.7.5" type="device">
  <diagram name="Page-1" id="7dq5iBuF4NVI_BzGUCOx">
    <mxGraphModel dx="945" dy="815" grid="0" gridSize="10" guides="1" tooltips="1" connect="1" arrows="1" fold="1" page="0" pageScale="1" pageWidth="850" pageHeight="1100" math="0" shadow="0">
      <root>
        <mxCell id="0" />
        <mxCell id="1" parent="0" />
        <mxCell id="9miko9YmAMsTaBrA5f3_-5" style="edgeStyle=orthogonalEdgeStyle;rounded=0;orthogonalLoop=1;jettySize=auto;html=1;fillColor=#f8cecc;strokeColor=#b85450;entryX=0;entryY=0.25;entryDx=0;entryDy=0;entryPerimeter=0;exitX=1;exitY=0.25;exitDx=0;exitDy=0;" parent="1" edge="1" target="lpgDaRIYxFEtYe-A6Hpc-1" source="9miko9YmAMsTaBrA5f3_-4">
          <mxGeometry relative="1" as="geometry">
            <Array as="points">
              <mxPoint x="33" y="-85" />
              <mxPoint x="88" y="-85" />
            </Array>
            <mxPoint x="93.5" y="-153.02" as="targetPoint" />
            <mxPoint x="-29" y="-153.02" as="sourcePoint" />
          </mxGeometry>
        </mxCell>
        <mxCell id="9miko9YmAMsTaBrA5f3_-11" value="Page Request&lt;br style=&quot;font-size: 14px;&quot;&gt;Data Request&lt;br&gt;(*)" style="edgeLabel;html=1;align=center;verticalAlign=middle;resizable=0;points=[];fontSize=14;" parent="9miko9YmAMsTaBrA5f3_-5" vertex="1" connectable="0">
          <mxGeometry x="-0.2526" y="-1" relative="1" as="geometry">
            <mxPoint x="24" y="-44" as="offset" />
          </mxGeometry>
        </mxCell>
        <mxCell id="9miko9YmAMsTaBrA5f3_-8" style="edgeStyle=orthogonalEdgeStyle;rounded=0;orthogonalLoop=1;jettySize=auto;html=1;fillColor=#dae8fc;strokeColor=#6c8ebf;entryX=0;entryY=0.5;entryDx=0;entryDy=0;entryPerimeter=0;exitX=1;exitY=0.5;exitDx=0;exitDy=0;exitPerimeter=0;" parent="1" edge="1" target="9miko9YmAMsTaBrA5f3_-6" source="lpgDaRIYxFEtYe-A6Hpc-1">
          <mxGeometry relative="1" as="geometry">
            <Array as="points">
              <mxPoint x="263" y="-66" />
              <mxPoint x="263" y="-66" />
            </Array>
            <mxPoint x="-30" y="-221" as="sourcePoint" />
            <mxPoint x="94.5" y="-221" as="targetPoint" />
          </mxGeometry>
        </mxCell>
        <mxCell id="9miko9YmAMsTaBrA5f3_-10" value="Static Assets&lt;br&gt;(/static, pre-rendered)" style="edgeLabel;html=1;align=center;verticalAlign=middle;resizable=0;points=[];fontSize=14;" parent="9miko9YmAMsTaBrA5f3_-8" vertex="1" connectable="0">
          <mxGeometry x="-0.3229" y="-2" relative="1" as="geometry">
            <mxPoint x="26" y="-71" as="offset" />
          </mxGeometry>
        </mxCell>
        <mxCell id="q8UiP1E4GkmoTODe-Jvb-5" style="edgeStyle=orthogonalEdgeStyle;rounded=0;orthogonalLoop=1;jettySize=auto;html=1;fillColor=#dae8fc;strokeColor=#6c8ebf;" parent="1" edge="1" target="lpgDaRIYxFEtYe-A6Hpc-1" source="9miko9YmAMsTaBrA5f3_-4">
          <mxGeometry relative="1" as="geometry">
            <mxPoint x="32.5" y="-51" as="sourcePoint" />
            <mxPoint x="135.5" y="-51" as="targetPoint" />
          </mxGeometry>
        </mxCell>
        <mxCell id="9miko9YmAMsTaBrA5f3_-4" value="Client" style="whiteSpace=wrap;html=1;fontSize=16;" parent="1" vertex="1">
          <mxGeometry x="-47" y="-106" width="80" height="80" as="geometry" />
        </mxCell>
        <mxCell id="9miko9YmAMsTaBrA5f3_-6" value="" style="sketch=0;points=[[0,0,0],[0.25,0,0],[0.5,0,0],[0.75,0,0],[1,0,0],[0,1,0],[0.25,1,0],[0.5,1,0],[0.75,1,0],[1,1,0],[0,0.25,0],[0,0.5,0],[0,0.75,0],[1,0.25,0],[1,0.5,0],[1,0.75,0]];outlineConnect=0;fontColor=#232F3E;fillColor=#7AA116;strokeColor=#ffffff;dashed=0;verticalLabelPosition=bottom;verticalAlign=top;align=center;html=1;fontSize=12;fontStyle=0;aspect=fixed;shape=mxgraph.aws4.resourceIcon;resIcon=mxgraph.aws4.s3;" parent="1" vertex="1">
          <mxGeometry x="325" y="-105" width="78" height="78" as="geometry" />
        </mxCell>
        <mxCell id="9miko9YmAMsTaBrA5f3_-7" value="S3" style="text;html=1;align=center;verticalAlign=middle;resizable=0;points=[];autosize=1;strokeColor=none;fillColor=none;fontSize=16;" parent="1" vertex="1">
          <mxGeometry x="345" y="-27" width="38" height="31" as="geometry" />
        </mxCell>
        <mxCell id="q8UiP1E4GkmoTODe-Jvb-4" style="edgeStyle=orthogonalEdgeStyle;rounded=0;orthogonalLoop=1;jettySize=auto;html=1;fillColor=#f8cecc;strokeColor=#b85450;startArrow=none;startFill=0;" parent="1" edge="1">
          <mxGeometry relative="1" as="geometry">
            <mxPoint x="157" y="-105" as="sourcePoint" />
            <mxPoint x="157" y="-200" as="targetPoint" />
          </mxGeometry>
        </mxCell>
        <mxCell id="2aSfoSNIMOnVBy7oixIh-6" style="edgeStyle=orthogonalEdgeStyle;rounded=0;orthogonalLoop=1;jettySize=auto;html=1;exitX=1;exitY=0.75;exitDx=0;exitDy=0;exitPerimeter=0;entryX=0;entryY=0.75;entryDx=0;entryDy=0;entryPerimeter=0;fillColor=#d5e8d4;strokeColor=#82b366;" edge="1" parent="1" source="lpgDaRIYxFEtYe-A6Hpc-1" target="9miko9YmAMsTaBrA5f3_-6">
          <mxGeometry relative="1" as="geometry" />
        </mxCell>
        <mxCell id="2aSfoSNIMOnVBy7oixIh-8" style="edgeStyle=orthogonalEdgeStyle;rounded=0;orthogonalLoop=1;jettySize=auto;html=1;fillColor=#dae8fc;strokeColor=#6c8ebf;startArrow=classic;startFill=1;" edge="1" parent="1">
          <mxGeometry relative="1" as="geometry">
            <mxPoint x="192" y="-105" as="sourcePoint" />
            <mxPoint x="192" y="-200" as="targetPoint" />
          </mxGeometry>
        </mxCell>
        <mxCell id="lpgDaRIYxFEtYe-A6Hpc-1" value="" style="sketch=0;points=[[0,0,0],[0.25,0,0],[0.5,0,0],[0.75,0,0],[1,0,0],[0,1,0],[0.25,1,0],[0.5,1,0],[0.75,1,0],[1,1,0],[0,0.25,0],[0,0.5,0],[0,0.75,0],[1,0.25,0],[1,0.5,0],[1,0.75,0]];outlineConnect=0;fontColor=#232F3E;fillColor=#8C4FFF;strokeColor=#ffffff;dashed=0;verticalLabelPosition=bottom;verticalAlign=top;align=center;html=1;fontSize=12;fontStyle=0;aspect=fixed;shape=mxgraph.aws4.resourceIcon;resIcon=mxgraph.aws4.cloudfront;" parent="1" vertex="1">
          <mxGeometry x="136" y="-105" width="78" height="78" as="geometry" />
        </mxCell>
        <mxCell id="lpgDaRIYxFEtYe-A6Hpc-2" value="CloudFront" style="text;html=1;align=center;verticalAlign=middle;resizable=0;points=[];autosize=1;strokeColor=none;fillColor=none;fontSize=16;" parent="1" vertex="1">
          <mxGeometry x="126.5" y="-26" width="97" height="31" as="geometry" />
        </mxCell>
        <mxCell id="lpgDaRIYxFEtYe-A6Hpc-7" value="" style="sketch=0;points=[[0,0,0],[0.25,0,0],[0.5,0,0],[0.75,0,0],[1,0,0],[0,1,0],[0.25,1,0],[0.5,1,0],[0.75,1,0],[1,1,0],[0,0.25,0],[0,0.5,0],[0,0.75,0],[1,0.25,0],[1,0.5,0],[1,0.75,0]];outlineConnect=0;fontColor=#232F3E;fillColor=#ED7100;strokeColor=#ffffff;dashed=0;verticalLabelPosition=bottom;verticalAlign=top;align=center;html=1;fontSize=12;fontStyle=0;aspect=fixed;shape=mxgraph.aws4.resourceIcon;resIcon=mxgraph.aws4.lambda;" parent="1" vertex="1">
          <mxGeometry x="135.5" y="-308" width="78" height="78" as="geometry" />
        </mxCell>
        <mxCell id="lpgDaRIYxFEtYe-A6Hpc-8" value="Lambda@Edge" style="text;html=1;align=center;verticalAlign=middle;resizable=0;points=[];autosize=1;strokeColor=none;fillColor=none;fontSize=16;" parent="1" vertex="1">
          <mxGeometry x="110.5" y="-231" width="129" height="31" as="geometry" />
        </mxCell>
        <mxCell id="2aSfoSNIMOnVBy7oixIh-1" style="edgeStyle=orthogonalEdgeStyle;rounded=0;orthogonalLoop=1;jettySize=auto;html=1;fillColor=#d5e8d4;strokeColor=#82b366;entryX=0;entryY=0.75;entryDx=0;entryDy=0;entryPerimeter=0;exitX=1;exitY=0.75;exitDx=0;exitDy=0;" edge="1" parent="1" source="9miko9YmAMsTaBrA5f3_-4" target="lpgDaRIYxFEtYe-A6Hpc-1">
          <mxGeometry relative="1" as="geometry">
            <Array as="points">
              <mxPoint x="136" y="-46" />
            </Array>
            <mxPoint x="-30" y="-280" as="sourcePoint" />
            <mxPoint x="94.5" y="-280" as="targetPoint" />
          </mxGeometry>
        </mxCell>
        <mxCell id="2aSfoSNIMOnVBy7oixIh-2" value="Static Assets&lt;br&gt;(/_app/*)" style="edgeLabel;html=1;align=center;verticalAlign=middle;resizable=0;points=[];fontSize=14;" vertex="1" connectable="0" parent="2aSfoSNIMOnVBy7oixIh-1">
          <mxGeometry x="-0.3229" y="-2" relative="1" as="geometry">
            <mxPoint x="16" y="21" as="offset" />
          </mxGeometry>
        </mxCell>
      </root>
    </mxGraphModel>
  </diagram>
</mxfile>
